; NON-PLATED HOLES START AT T1
; THROUGH (PLATED) HOLES START AT T100
M48
INCH
T1C0.125984
T100C0.032000
T101C0.015748
T102C0.038000
T103C0.051181
T104C0.030000
T105C0.039370
T106C0.043307
T107C0.035000
%
T1
X110117Y075856
X055950Y019066
X002242Y145049
X055950Y075856
X002242Y075856
X002242Y003318
X110117Y145444
X055950Y132451
X110117Y003712
T100
X091203Y127736
X010510Y080483
X011260Y066597
X064442Y047611
X090416Y033642
X091166Y060307
X064442Y026532
X090453Y047135
X011302Y121627
X037667Y121008
X036876Y087557
X064405Y054197
X090416Y074193
X091166Y087079
X011298Y046231
X011298Y047231
X091203Y094878
X011298Y106861
X037663Y027533
X091166Y034142
X064442Y027532
X010510Y033239
X091203Y027556
X037626Y074671
X011298Y101168
X091166Y054221
X036913Y047112
X091203Y046635
X037626Y087057
X036876Y033620
X063655Y040312
X011298Y026153
X064442Y113933
X064405Y088055
X036913Y128214
X010548Y046731
X011298Y128333
X063655Y060784
X011298Y093475
X064405Y087055
X091203Y047635
X091166Y080386
X063655Y067477
X064442Y128713
X063655Y053697
X064405Y081362
X091166Y053221
X011260Y073290
X010510Y060404
X036913Y094356
X091203Y026556
X036876Y067478
X064405Y033119
X091166Y033142
X011298Y094475
X037626Y053198
X063655Y080862
X010510Y087176
X037663Y094856
X090416Y060807
X091203Y108264
X064405Y053197
X037626Y073671
X091166Y061307
X064442Y101547
X064405Y067977
X010548Y114054
X037626Y066978
X064442Y100547
X091203Y100571
X036876Y040313
X064442Y127713
X090416Y087579
X010510Y039932
X091207Y122030
X010510Y073790
X064442Y108240
X063692Y128213
X037663Y113935
X010552Y121127
X063655Y087555
X064405Y061284
X037626Y080364
X063692Y094354
X011260Y067597
X037626Y039813
X064405Y034119
X064405Y039812
X011260Y040432
X090453Y114457
X090416Y040335
X011260Y052818
X011260Y053818
X037663Y093856
X037663Y107242
X037626Y034120
X036913Y114435
X037626Y033120
X091166Y073693
X064442Y114933
X091166Y068000
X011260Y060904
X011298Y027153
X010548Y026653
X090416Y053721
X036876Y080864
X064405Y066977
X091203Y128736
X011260Y074290
X010548Y100668
X091203Y101571
X010510Y053318
X063692Y107740
X037663Y127714
X037663Y026533
X091203Y113957
X037663Y101549
X037663Y108242
X010510Y067097
X011260Y079983
X064442Y046611
X090453Y101071
X091203Y114957
X036876Y060785
X011298Y100168
X037626Y081364
X037626Y060285
X091203Y093878
X011302Y120627
X091203Y107264
X036876Y074171
X011260Y033739
X091166Y039835
X037626Y067978
X011260Y059904
X064442Y107240
X011260Y086676
X037626Y040813
X090453Y107764
X037626Y061285
X063655Y074169
X011260Y080983
X037663Y100549
X091166Y081386
X063692Y047111
X090453Y128236
X090457Y121530
X037663Y046612
X037663Y128714
X036913Y027033
X091207Y121030
X011298Y114554
X037663Y114935
X091166Y074693
X091166Y088079
X036913Y107742
X063696Y121506
X036876Y053698
X063655Y033619
X011260Y039432
X064405Y040812
X091166Y040835
X010548Y093975
X064405Y080362
X063692Y101047
X010548Y107361
X064405Y073669
X010548Y127833
X090416Y080886
X091166Y067000
X037626Y088057
X037626Y054198
X011298Y127333
X036913Y101049
X011298Y107861
X011298Y113554
X037667Y122008
X036917Y121508
X063692Y114433
X011260Y032738
X011260Y087676
X063692Y027032
X037663Y047612
X064405Y074669
X064405Y060284
X090453Y027056
X064442Y094854
X064446Y122006
X090416Y067500
X090453Y094378
X064446Y121006
X064442Y093854
T101
X020746Y028908
X071140Y028908
X044368Y028908
T102
X065628Y004105
X063660Y005105
X061691Y003105
X061691Y005105
X063660Y003105
X063660Y004105
X065628Y003105
X061691Y004105
X065628Y005105
T103
X095868Y038367
X068300Y042674
X073891Y080863
X041521Y083226
X015963Y073790
X047112Y112360
X100652Y045060
X015156Y109617
X042328Y040313
X095868Y114351
X042328Y119053
X068300Y130075
X095061Y042698
X095065Y123393
X042328Y094250
X047112Y038344
X100652Y078917
X100652Y100965
X095061Y110020
X073906Y060784
X100667Y067501
X020761Y053712
X042343Y054092
X095873Y121031
X068300Y083225
X020746Y132058
X047127Y060785
X047112Y132438
X041521Y049368
X047112Y098974
X047112Y127714
X068300Y089918
X015160Y122989
X015978Y060404
X042343Y065509
X095061Y130099
X020746Y078514
X015963Y105286
X095061Y036005
X015963Y037963
X069107Y051728
X068300Y109996
X069107Y114327
X095868Y026950
X020746Y080483
X095873Y125755
X042328Y085588
X015156Y116310
X047112Y047006
X069112Y121007
X069107Y107634
X042328Y127714
X041396Y029302
X015963Y127334
X095868Y031673
X042343Y058816
X020746Y087176
X047112Y033620
X073891Y045036
X100652Y051752
X047127Y058816
X100652Y038367
X069112Y125731
X042328Y105667
X015963Y039932
X069107Y098972
X069107Y085587
X069107Y119051
X015963Y044656
X041521Y130076
X047112Y100943
X073891Y047005
X020746Y113948
X068305Y123369
X047112Y080864
X020746Y105286
X015967Y125351
X073891Y092280
X015963Y046625
X100652Y105689
X069107Y045036
X015978Y071821
X095868Y107658
X069107Y112358
X073891Y119051
X020746Y127334
X095868Y132461
X042333Y125732
X100652Y074193
X020746Y037963
X095868Y040336
X069107Y033619
X069123Y067477
X020746Y107255
X095883Y067501
X100667Y058839
X095868Y047028
X015963Y111979
X041521Y116691
X020761Y060404
X015156Y082845
X042203Y026940
X047112Y040313
X020746Y031271
X015963Y093869
X068300Y103303
X015978Y053712
X015978Y065128
X095883Y060808
X073891Y078894
X068300Y116689
X020746Y118672
X073906Y065508
X100667Y065532
X095061Y089941
X068315Y069839
X069107Y031650
X095868Y045060
X020746Y073790
X015963Y091900
X020746Y085207
X015967Y120627
X069107Y047005
X042333Y121008
X095061Y049390
X020746Y111979
X046987Y026940
X095868Y078917
X047112Y078895
X015156Y129696
X068300Y049366
X015171Y062766
X041536Y063147
X042328Y045037
X073891Y094248
X015963Y113948
X100652Y031673
X095076Y056477
X047112Y087557
X095868Y127737
X015963Y132058
X095868Y100965
X042343Y060785
X095868Y112382
X073891Y112358
X073895Y125731
X020746Y093869
X020761Y067097
X020761Y058436
X069107Y127713
X015963Y085207
X015963Y087176
X069107Y080863
X047112Y074171
X015963Y100562
X073906Y054091
X100652Y047028
X095061Y103327
X020746Y026547
X100652Y132461
X047127Y065509
X073891Y038343
X015963Y026547
X042328Y112360
X069107Y132437
X047112Y051730
X020746Y039932
X041521Y035982
X095868Y074193
X015963Y051349
X020746Y033239
X047127Y054092
X073891Y031650
X073891Y114327
X020746Y044656
X042328Y078895
X047112Y119053
X100667Y060808
X095868Y085610
X042328Y107636
X015156Y102924
X069123Y060784
X047112Y105667
X042328Y047006
X015171Y069459
X069107Y026926
X100652Y094272
X015978Y067097
X020746Y051349
X095061Y029312
X073891Y051728
X069107Y038343
X073891Y127713
X041521Y042675
X100652Y033643
X047116Y125732
X020751Y120627
X095883Y054115
X015156Y096231
X095061Y116713
X069107Y087556
X073891Y040312
X015156Y089538
X100652Y107658
X069107Y105665
X047127Y072202
X069107Y094248
X020746Y100562
X100652Y092303
X095076Y063170
X015156Y076152
X073891Y132437
X068300Y035981
X015978Y058436
X047116Y121008
X100652Y087579
X015171Y056074
X041521Y103305
X095883Y065532
X069123Y072201
X069123Y065508
X041536Y056454
X047112Y092281
X100652Y080886
X095883Y058839
X095868Y033643
X069107Y074170
X073906Y067477
X047127Y067478
X095868Y098996
X073891Y026926
X069107Y040312
X073891Y098972
X095061Y083248
X100656Y125755
X047112Y094250
X073891Y087556
X095883Y072225
X015963Y107255
X020746Y046625
X042328Y098974
X047112Y107636
X068300Y029288
X100652Y112382
X095076Y069863
X015963Y033239
X095868Y080886
X068315Y063146
X042343Y067478
X100667Y054115
X015963Y080483
X041521Y109998
X015963Y118672
X100652Y098996
X047112Y114329
X041525Y123370
X073891Y100941
X073891Y074170
X042328Y033620
X042328Y114329
X069107Y100941
X068300Y096610
X068300Y076532
X020746Y098593
X095868Y105689
X073906Y072201
X100652Y119075
X073891Y105665
X020761Y065128
X015156Y042294
X100652Y085610
X015963Y098593
X020761Y071821
X042328Y074171
X100652Y026950
X015963Y031271
X041521Y089919
X042328Y080864
X041536Y069840
X069107Y092280
X042328Y092281
X047112Y045037
X100652Y114351
X073895Y121007
X095061Y076555
X100656Y121031
X095868Y094272
X095868Y087579
X073891Y033619
X015156Y048987
X069123Y058815
X015156Y028908
X073906Y058815
X020746Y091900
X020751Y125351
X042328Y132438
X068315Y056453
X042328Y038344
X042343Y072202
X095868Y051752
X047112Y085588
X073891Y085587
X015156Y035601
X041521Y076533
X095061Y096634
X041521Y096612
X069107Y078894
X100652Y127737
X042203Y031663
X042328Y087557
X095868Y092303
X100667Y072225
X095868Y119075
X046987Y031663
X042328Y051730
X042328Y100943
X073891Y107634
X100652Y040336
X015963Y078514
X069123Y054091
T104
X071731Y015722
X020479Y016853
X076623Y017233
X012479Y016853
X096384Y017257
X071623Y020233
X075623Y020233
X041844Y020233
X073623Y017233
X021479Y019853
X017479Y016853
X043844Y020233
X072623Y017233
X098384Y017257
X039844Y017233
X047844Y020233
X077623Y020233
X039844Y020233
X100385Y020257
X019081Y015237
X023479Y016853
X091384Y017257
X100385Y017257
X021479Y016853
X022479Y016853
X099384Y017257
X097384Y017257
X040844Y020233
X048844Y020233
X019081Y014235
X066623Y017233
X044844Y020233
X101385Y017257
X042844Y020233
X067623Y017233
X065623Y020233
X074623Y017233
X019479Y016853
X049844Y017233
X092384Y017257
X096384Y020257
X093384Y020257
X093384Y017257
X037844Y020233
X045844Y017233
X045156Y015933
X094384Y017257
X016479Y016853
X040844Y017233
X104385Y017257
X067623Y020233
X045844Y020233
X066623Y020233
X019479Y019853
X064623Y020233
X076623Y020233
X014479Y019853
X102385Y017257
X045156Y014932
X013479Y016853
X012479Y019853
X011479Y016853
X064623Y017233
X018479Y019853
X014479Y016853
X099290Y016131
X098384Y020257
X091384Y020257
X015479Y016853
X065623Y017233
X047844Y017233
X075623Y017233
X071731Y014720
X018479Y016853
X024479Y016853
X049844Y020233
X070623Y017233
X042844Y017233
X015479Y019853
X099290Y015128
X017479Y019853
X048844Y017233
X077623Y017233
X103385Y017257
X050844Y020233
X094384Y020257
X041844Y017233
X037844Y017233
X011479Y019853
X020479Y019853
X073623Y020233
X050844Y017233
X016479Y019853
X038844Y017233
X101385Y020257
X097384Y020257
X103385Y020257
X095384Y020257
X071623Y017233
X044844Y017233
X046844Y017233
X046844Y020233
X038844Y020233
X043844Y017233
X092384Y020257
X022479Y019853
X070623Y020233
X102385Y020257
X024479Y019853
X069623Y020233
X074623Y020233
X072623Y020233
X068623Y017233
X023479Y019853
X013479Y019853
X104385Y020257
X095384Y017257
X069623Y017233
X099384Y020257
X068623Y020233
T105
X066026Y054486
X066017Y031650
X039238Y027652
X047636Y009318
X066017Y095036
X039238Y115116
X092742Y061233
X066017Y088280
X057636Y009318
X058636Y009318
X039238Y119116
X012872Y105349
X012877Y121414
X092787Y054510
X092778Y112445
X092782Y125818
X039238Y051730
X012837Y064829
X066017Y105729
X053636Y003318
X065991Y067903
X012872Y112042
X047636Y003318
X066017Y074894
X012872Y044657
X034132Y004287
X039238Y132502
X034132Y005287
X039238Y092281
X012872Y027271
X051636Y003318
X012872Y091900
X048636Y003318
X012872Y114735
X012872Y040657
X039238Y085588
X039247Y054487
X053636Y009318
X039238Y045037
X039238Y099037
X066017Y034343
X012872Y087900
X036132Y005287
X012872Y132121
X066017Y101729
X092778Y095059
X092778Y128524
X039247Y058487
X092787Y058510
X092778Y074918
X012881Y058107
X039238Y088281
X092751Y071927
X092778Y101752
X066021Y121794
X092778Y047752
X054636Y003318
X012846Y071524
X092778Y038367
X012872Y094656
X049636Y003318
X039238Y074895
X092778Y132524
X012872Y037964
X092778Y034367
X050636Y003318
X012877Y125414
X012872Y051350
X066017Y081587
X092778Y115138
X092778Y051752
X012837Y060829
X066017Y132500
X012872Y085207
X092778Y085611
X092778Y081611
X054636Y009318
X012846Y067524
X012872Y128121
X035132Y005287
X012872Y074514
X066017Y027650
X039238Y038345
X039242Y125795
X039238Y031652
X066017Y085587
X066017Y099036
X012872Y033964
X039238Y101730
X057636Y003318
X051636Y009318
X092782Y121818
X039238Y108423
X039211Y071905
X012872Y118735
X056636Y003318
X039211Y067905
X066017Y092280
X012872Y078514
X055636Y003318
X039238Y128502
X092778Y045060
X052636Y003318
X066017Y045036
X092778Y041060
X066026Y058486
X066017Y078894
X092778Y119138
X066017Y112421
X092778Y031673
X012872Y081207
X050636Y009318
X066017Y038343
X039238Y078895
X039238Y041037
X039238Y095037
X036132Y004287
X039238Y105730
X056636Y009318
X066021Y125794
X066017Y115114
X012872Y101349
X065991Y071903
X012872Y098656
X039238Y112423
X066017Y041036
X039238Y034345
X092778Y027673
X055636Y009318
X039202Y061210
X049636Y009318
X066017Y128500
X092778Y105752
X092778Y108445
X066017Y119114
X092742Y065233
X039202Y065210
X039238Y047730
X039238Y081588
X092778Y099059
X012872Y047350
X012881Y054107
X066017Y047729
X012872Y108042
X039242Y121795
X052636Y009318
X066017Y108421
X092778Y092303
X092778Y078918
X065981Y061209
X048636Y009318
X065981Y065209
X012872Y031271
X092751Y067927
X035132Y004287
X092778Y088303
X066017Y051729
X058636Y003318
T106
X099376Y139941
X023471Y138538
X003825Y129315
X022471Y139538
X003030Y028515
X025471Y139538
X021471Y138538
X026471Y139538
X003030Y026546
X105377Y139941
X003825Y123016
X101377Y138941
X072615Y139918
X045836Y138919
X074615Y139918
X021471Y139538
X019471Y138538
X023471Y139538
X075615Y139918
X077615Y139918
X074615Y138918
X104377Y138941
X003825Y131284
X078615Y138918
X076615Y138918
X048836Y138919
X049836Y139919
X049836Y138919
X020471Y138538
X100377Y139941
X052836Y139919
X024471Y139538
X102377Y139941
X079615Y139918
X048836Y139919
X103377Y138941
X025471Y138538
X047836Y139919
X045836Y139919
X103377Y139941
X051836Y139919
X050836Y139919
X105377Y138941
X104377Y139941
X099376Y138941
X106377Y138941
X050836Y138919
X003825Y124984
X026471Y138538
X052836Y138919
X100377Y138941
X051836Y138919
X072615Y138918
X079615Y138918
X076615Y139918
X019471Y139538
X106377Y139941
X073615Y138918
X046836Y139919
X077615Y138918
X046836Y138919
X047836Y138919
X073615Y139918
X024471Y138538
X078615Y139918
X101377Y139941
X020471Y139538
X022471Y138538
X075615Y138918
X102377Y138941
T107
X064447Y119310
X091416Y072262
X038069Y105530
X011833Y037657
X064447Y058680
X011676Y095420
X064447Y035405
X063463Y028121
X080392Y016247
X038069Y065176
X038069Y071869
X011833Y088688
X038069Y058286
X011676Y111806
X038069Y048593
X089250Y129892
X107361Y016507
X038069Y091947
X091416Y105924
X034085Y124184
X064447Y069262
X064447Y105924
X091416Y102924
X080392Y020247
X064644Y123199
X038069Y055286
X091416Y126199
X038069Y109223
X038069Y112223
X064447Y042098
X011636Y115656
X064644Y051790
X062479Y129302
X064447Y055680
X091416Y109617
X064447Y072262
X064447Y096231
X106180Y016443
X011833Y081995
X011833Y034657
X064447Y082845
X025077Y014735
X011715Y122467
X064447Y038405
X078817Y016113
X037085Y125562
X091613Y048987
X011676Y102113
X091416Y085648
X011754Y044468
X011794Y051176
X086250Y129892
X064447Y116310
X011636Y118656
X011676Y108806
X091416Y069262
X091416Y099231
X038069Y098837
X038069Y051593
X011754Y075302
X091416Y082648
X091613Y038601
X064447Y089538
X037085Y124184
X091416Y123199
X091416Y112617
X091613Y062766
X091416Y079152
X038069Y116113
X091613Y065766
X091416Y116507
X051849Y016443
X053030Y016507
X063463Y031121
X064447Y075955
X064644Y126199
X091416Y119507
X011794Y048176
X038069Y035405
X038069Y082451
X011636Y061916
X091613Y042294
X091416Y092341
X064447Y092538
X011597Y071609
X038069Y038405
X091613Y055877
X064447Y065570
X064447Y045098
X036888Y028318
X064447Y078955
X051849Y020443
X064447Y109617
X107361Y020507
X078817Y020113
X019353Y025026
X091416Y089341
X064644Y048790
X091416Y076152
X011754Y078302
X025864Y016247
X025864Y020247
X011833Y091688
X011715Y125467
X091022Y031515
X038069Y095837
X091416Y096231
X059479Y129302
X011676Y105113
X053030Y020507
X038069Y068869
X091022Y028515
X064447Y085845
X064447Y099231
X011754Y041468
X034085Y125562
X036888Y031318
X091613Y058877
X007297Y130144
X029077Y014735
X064447Y062570
X011557Y054908
X038069Y075562
X038069Y088947
X064447Y102924
X091613Y045294
X038069Y102530
X038069Y078562
X011833Y084995
X091613Y035601
X038069Y041901
X010298Y130144
X106180Y020443
X011557Y057908
X011676Y098420
X091613Y051987
X038069Y119113
X011636Y064916
X038069Y085451
X038069Y044901
X064447Y112617
X016353Y025026
X011597Y068609
X038069Y062176
T00
M30
